<?xml version="1.0" ?><!DOCTYPE svg  PUBLIC '-//W3C//DTD SVG 1.1//EN'  'http://www.w3.org/Graphics/SVG/1.1/DTD/svg11.dtd'><svg enable-background="new 0 0 128 128" fill="#ffd700" height="128px" id="Layer_1" version="1.1" viewBox="0 0 128 128" width="128px" xml:space="preserve" xmlns="http://www.w3.org/2000/svg" xmlns:xlink="http://www.w3.org/1999/xlink"><path d="M91.046,111.818c-1.19,0-2.347-0.361-3.341-1.049C87.188,110.402,68.92,97.098,64,93.515L40.336,110.74  c-1.039,0.717-2.194,1.078-3.382,1.078c-3.228,0-5.854-2.636-5.854-5.877c0-0.639,0.114-1.305,0.339-1.98l0.038-0.105  c0.253-0.71,6.214-18.996,9.008-27.575c-7.342-5.364-23.014-16.808-23.653-17.25c-1.589-1.114-2.524-2.915-2.524-4.834  c0-3.305,2.608-5.994,5.815-5.994h29.346l8.933-27.59c0.687-2.446,2.998-4.207,5.599-4.207c2.604,0,4.915,1.762,5.622,4.283  l8.947,27.514h29.35c3.185,0,5.775,2.679,5.775,5.974c0,1.932-0.936,3.74-2.502,4.838c-0.671,0.463-16.339,11.903-23.678,17.265  c2.797,8.586,8.764,26.887,9.025,27.621c0.246,0.727,0.361,1.396,0.361,2.041C96.901,109.183,94.274,111.818,91.046,111.818z   M64,88.566l1.178,0.856c8.396,6.116,24.391,17.764,24.824,18.072c0.299,0.206,0.669,0.323,1.044,0.323  c1.023,0,1.855-0.842,1.855-1.877c0-0.209-0.045-0.447-0.133-0.709c-0.148-0.371-6.698-20.473-9.506-29.094l-0.449-1.378  l1.171-0.854c2.486-1.818,24.313-17.764,24.944-18.188c0.468-0.329,0.766-0.913,0.766-1.541c0-1.069-0.813-1.974-1.775-1.974H75.663  l-9.869-30.355c-0.252-0.894-0.964-1.441-1.794-1.441c-0.829,0-1.541,0.549-1.771,1.366l-9.85,30.431H20.123  c-0.984,0-1.815,0.914-1.815,1.994c0,0.617,0.298,1.193,0.797,1.543c0.6,0.403,22.425,16.349,24.911,18.167l1.171,0.854  l-0.449,1.379c-2.716,8.344-8.937,27.436-9.504,29.086h0.001c-0.089,0.267-0.134,0.508-0.134,0.717c0,1.035,0.831,1.877,1.854,1.877  c0.38,0,0.74-0.114,1.071-0.342L64,88.566z"/></svg>